<svg xmlns="http://www.w3.org/2000/svg" version="1.1" xmlns:xlink="http://www.w3.org/1999/xlink" width="512" height="512" x="0" y="0" viewBox="0 0 512 512" style="enable-background:new 0 0 512 512" xml:space="preserve" class=""><g><g fill-rule="evenodd" clip-rule="evenodd"><path fill="#ffd18d" d="M207.05 278.69h97.93c6.52 0 11.85 5.33 11.85 11.85V423.2c0 6.52-5.33 11.85-11.85 11.85h-97.93c-6.52 0-11.88-5.33-11.88-11.85V290.54c0-6.52 5.36-11.85 11.88-11.85z" opacity="1" data-original="#ffd18d"></path><path fill="#e6bc7f" d="M316.83 304.74v14.6c-17.97 10.4-38.78 16.35-60.83 16.35-9.86 0-19.5-1.19-28.71-3.46-8.82-2.15-17.23 4.45-17.23 13.55v10.29h-14.88v-51.33c17.49 11.71 38.44 18.54 60.83 18.54 22.44 0 43.39-6.83 60.82-18.54z" opacity="1" data-original="#e6bc7f"></path><path fill="#4e3d4d" d="m344.3 369.56 88.27 30.19c18.42 6.29 30.24 22.85 30.24 42.32v52.24c0 9.72-7.94 17.69-17.69 17.69H66.88c-9.72 0-17.69-7.97-17.69-17.69v-52.24c0-19.47 11.85-36.03 30.27-42.32l88.24-30.19 89.8 8.99z" opacity="1" data-original="#4e3d4d" class=""></path><path fill="#292129" d="m344.3 369.56.74 70.66c.06 4.22-2.61 7.82-6.66 9.01l-9.1 2.66c-5.53 1.64-8.25 7.77-5.75 12.95l1.33 2.78c2.21 4.59.31 10.12-4.25 12.36L256 512l-64.57-32c-4.56-2.24-6.46-7.77-4.25-12.36l1.33-2.78a9.281 9.281 0 0 0-5.75-12.95l-9.1-2.66c-4.05-1.19-6.72-4.79-6.69-9.01l.74-70.66 88.3 8.14z" opacity="1" data-original="#292129" class=""></path><path fill="#1badde" d="m256 512 88.3-142.44-88.3 8.14-88.3-8.14z" opacity="1" data-original="#1badde"></path><path fill="#4e3d4d" d="M241.74 0h28.54C333.5 0 385.2 51.7 385.2 114.91v49.32c0 36.08-29.51 65.59-65.59 65.59H192.42c-36.08 0-65.59-29.51-65.59-65.59v-49.32C126.83 51.7 178.53 0 241.74 0z" opacity="1" data-original="#4e3d4d" class=""></path><path fill="#ffd18d" d="M136.69 175.12h9.1c8.59 0 14.68-7.06 15.59-15.59v-24.41c0-6.35 6.15-10.8 12.19-8.84 28.86 9.41 75.91 12.84 115.39-34.1 3.51-4.17 9.75-4.48 13.63-.62 10.09 9.95 28.06 21.8 41.72 26.47 3.83 1.3 6.29 4.76 6.29 8.79v32.71c0 8.59 7 15.59 15.59 15.59h9.13c12.27 0 22.34 10.06 22.34 22.36s-10.06 22.36-22.34 22.36h-9.81C362.27 277.3 314.25 323.28 256 323.28c-57.88 0-106.24-45.64-109.5-103.43h-9.81c-12.3 0-22.36-10.06-22.36-22.36 0-12.31 10.06-22.37 22.36-22.37z" opacity="1" data-original="#ffd18d"></path><path fill="#736572" d="m256 512-25.11-40.53 8.48-41.21c-2.69-1.93-4.68-4.85-5.58-8.33l-11.62-44.53 33.83.3 33.84-.31-11.62 44.53c-.91 3.49-2.89 6.41-5.58 8.33l8.5 41.21z" opacity="1" data-original="#736572"></path></g><path fill="#e29a6c" d="M220.85 251.14c-3.83-2.47-4.9-7.57-2.44-11.4 2.49-3.8 7.6-4.88 11.39-2.41 8.99 5.81 17.77 9.13 26.39 9.33 8.39.2 16.89-2.61 25.57-9.04 3.66-2.69 8.82-1.93 11.54 1.73 2.69 3.66 1.93 8.82-1.73 11.51-11.76 8.76-23.7 12.56-35.77 12.27-11.82-.28-23.47-4.54-34.95-11.99z" opacity="1" data-original="#e29a6c"></path><path fill="#4e3d4d" d="M315.52 146.6c4.56 0 8.28 3.71 8.28 8.28s-3.71 8.28-8.28 8.28H295c-4.56 0-8.28-3.71-8.28-8.28s3.71-8.28 8.28-8.28zM217.03 146.6c4.56 0 8.25 3.71 8.25 8.28s-3.68 8.28-8.25 8.28h-20.55c-4.56 0-8.25-3.71-8.25-8.28s3.68-8.28 8.25-8.28zM198.49 181.75c0-4.56 3.68-8.25 8.25-8.25 4.56 0 8.28 3.68 8.28 8.25v11.17c0 4.56-3.71 8.25-8.28 8.25-4.56 0-8.25-3.68-8.25-8.25zM297.02 181.75c0-4.56 3.68-8.25 8.25-8.25 4.56 0 8.28 3.68 8.28 8.25v11.17c0 4.56-3.71 8.25-8.28 8.25-4.56 0-8.25-3.68-8.25-8.25z" opacity="1" data-original="#4e3d4d" class=""></path><path fill="#3f323e" d="M360.25 490.77c-4.56 0-8.28-3.69-8.28-8.25s3.71-8.28 8.28-8.28h44.53c4.56 0 8.28 3.71 8.28 8.28 0 4.56-3.71 8.25-8.28 8.25z" opacity="1" data-original="#3f323e"></path><path fill="#dbd8db" fill-rule="evenodd" d="m167.7 369.56 27.18 46.06c3.12 5.3 9.84 6.41 14.37 2.49L256 377.7l-61.4-36.08c-5.7-3.35-12.84-1.08-15.79 5.05zM344.3 369.56l-27.15 46.06c-3.12 5.3-9.84 6.41-14.37 2.49L256 377.7l61.4-36.08c5.73-3.35 12.84-1.08 15.82 5.05z" clip-rule="evenodd" opacity="1" data-original="#dbd8db" class=""></path><path fill="#463745" fill-rule="evenodd" d="M161.38 135.12c0-6.35 6.15-10.8 12.19-8.84 1.93.62 3.91 1.22 5.98 1.79V18.4c-31.66 20.52-52.72 56.18-52.72 96.52v49.32c0 4.31.43 8.56 1.22 12.64 2.66-1.13 5.58-1.76 8.65-1.76h9.1c8.59 0 14.68-7.06 15.59-15.59v-24.41z" clip-rule="evenodd" opacity="1" data-original="#463745" class=""></path><path fill="#e6bc7f" fill-rule="evenodd" d="M161.38 159.53c-.91 8.53-7 15.59-15.59 15.59h-9.1c-3.06 0-5.98.62-8.65 1.76-8.02 3.4-13.72 11.37-13.72 20.61 0 12.3 10.06 22.36 22.36 22.36h9.81c2.01 35.43 20.98 66.33 48.67 84.89 17.49 11.73 38.44 18.54 60.83 18.54.94 0 1.87 0 2.78-.03-26.02-.77-49.12-13.86-63.55-33.65-9.84-13.49-15.67-30.07-15.67-47.93V128.06c-2.07-.57-4.05-1.16-5.98-1.79-6.04-1.96-12.19 2.49-12.19 8.84z" clip-rule="evenodd" opacity="1" data-original="#e6bc7f"></path><path fill="#463745" fill-rule="evenodd" d="M70.4 452.39c0-19.47 11.82-36 30.24-42.32l66.89-22.87.17-17.63-88.24 30.19c-18.42 6.29-30.27 22.85-30.27 42.32v52.24c0 9.72 7.96 17.69 17.69 17.69h5.1a17.823 17.823 0 0 1-1.59-7.37v-52.25z" clip-rule="evenodd" opacity="1" data-original="#463745" class=""></path></g></svg>